HIERARCHY
ROOT hip
{
	OFFSET 0.000000 0.000000 0.000000 
	CHANNELS 6 Xposition Yposition Zposition Xrotation Zrotation Yrotation
	JOINT abdomen
	{
		OFFSET 0.000000 3.402643 0.000000 
		CHANNELS 3 Xrotation Zrotation Yrotation
		JOINT chest
		{
			OFFSET 0.000000 8.438565 -0.680529 
			CHANNELS 3 Xrotation Zrotation Yrotation
			JOINT neck
			{
				OFFSET 0.000000 10.207942 -0.272212 
				CHANNELS 3 Xrotation Zrotation Yrotation
				JOINT head
				{
					OFFSET 0.000000 3.130431 0.000000 
					CHANNELS 3 Xrotation Zrotation Yrotation
					End Site
					{
						OFFSET 0.000000 3.130435 0.000000 
					}
				}
			}
			JOINT lCollar
			{
				OFFSET 3.470700 6.669187 -0.816635 
				CHANNELS 3 Yrotation Zrotation Xrotation
				JOINT lShldr
				{
					OFFSET 3.198488 0.000000 0.000000 
					CHANNELS 3 Zrotation Yrotation Xrotation
					JOINT lForeArm
					{
						OFFSET 10.139888 0.000000 0.000000 
						CHANNELS 3 Yrotation Zrotation Xrotation
						JOINT lHand
						{
							OFFSET 8.370511 0.000000 0.000000 
							CHANNELS 3 Zrotation Yrotation Xrotation
							End Site
							{
								OFFSET 4.083176 0.000000 0.000000 
							}
						}
					}
				}
			}
			JOINT rCollar
			{
				OFFSET -3.470700 6.669187 -0.816635 
				CHANNELS 3 Yrotation Zrotation Xrotation
				JOINT rShldr
				{
					OFFSET -3.198488 0.000000 0.000000 
					CHANNELS 3 Zrotation Yrotation Xrotation
					JOINT rForeArm
					{
						OFFSET -10.139888 0.000000 0.000000 
						CHANNELS 3 Yrotation Zrotation Xrotation
						JOINT rHand
						{
							OFFSET -8.370511 0.000000 0.000000 
							CHANNELS 3 Zrotation Yrotation Xrotation
							End Site
							{
								OFFSET -4.083176 0.000000 0.000000 
							}
						}
					}
				}
			}
		}
	}
	JOINT lThigh
	{
		OFFSET 5.308129 -1.633274 1.361059 
		CHANNELS 3 Xrotation Zrotation Yrotation
		JOINT lShin
		{
			OFFSET -2.041588 -20.007561 0.000000 
			CHANNELS 3 Xrotation Zrotation Yrotation
			JOINT lFoot
			{
				OFFSET 0.000000 -19.190928 -1.224953 
				CHANNELS 3 Xrotation Yrotation Zrotation
				End Site
				{
					OFFSET 0.000000 -2.449906 4.627600 
				}
			}
		}
	}
	JOINT rThigh
	{
		OFFSET -5.308129 -1.633274 1.361059 
		CHANNELS 3 Xrotation Zrotation Yrotation
		JOINT rShin
		{
			OFFSET 2.041588 -20.007561 0.000000 
			CHANNELS 3 Xrotation Zrotation Yrotation
			JOINT rFoot
			{
				OFFSET 0.000000 -19.190928 -1.224953 
				CHANNELS 3 Xrotation Yrotation Zrotation
				End Site
				{
					OFFSET 0.000000 -2.449906 4.627600 
				}
			}
		}
	}
}
MOTION
Frames: 8
Frame Time: 0.011111
11.179023 51.191147 14.647638 -8.815477 -6.966465 -21.346558 19.816309 -5.800997 -2.708676 -19.963243 0.115212 -0.313355 -5.731082 -5.055398 -3.173304 31.209457 10.344481 -4.776711 2.424333 -4.683778 1.783845 -56.768890 -70.488831 39.965958 -89.549629 5.446901 34.832199 8.524705 12.647240 -41.126354 -2.738486 -1.140572 2.095526 -52.609520 68.681213 -72.544067 86.094780 -1.377095 28.996990 -8.534408 -12.637552 37.826031 10.931460 11.137952 1.230753 31.560757 -5.249350 -5.040153 -33.739265 6.742310 2.901867 -15.438811 -17.635939 -0.840004 65.131851 2.120371 8.543636 -3.924439 -16.987797 2.436683 
11.103841 51.222424 14.753495 -8.538645 -7.016283 -20.979980 19.948410 -5.663483 -2.920555 -20.051352 0.231023 -0.383398 -5.741938 -5.200659 -3.147861 31.234554 10.442815 -4.731897 2.424333 -4.683778 1.783845 -56.400536 -69.388161 38.572926 -90.349831 6.065795 35.355843 8.524705 12.647240 -41.370499 -2.738486 -1.140572 2.095526 -53.137840 68.018608 -74.062508 86.199646 -1.270542 29.641109 -8.534408 -12.637552 38.236183 10.787188 11.411534 0.892857 31.362001 -5.253731 -5.023864 -33.769287 6.679697 2.879515 -15.573304 -17.438065 -0.842790 63.980492 2.275612 8.452238 -5.992947 -16.801405 1.899801 
11.029861 51.244377 14.842512 -8.229033 -7.068026 -20.677107 20.062004 -5.553855 -2.964818 -20.119726 0.240054 -0.403340 -5.685241 -5.393107 -3.144511 31.179350 10.878427 -4.618150 2.424333 -4.683778 1.783845 -56.032101 -68.287476 37.306660 -91.187263 6.639066 35.881191 8.524705 12.647240 -41.458382 -2.738486 -1.140572 2.095526 -53.528103 67.214928 -75.574387 86.285301 -1.310671 30.255888 -8.534408 -12.637552 38.704933 10.623159 11.697210 0.635057 31.122833 -5.263041 -5.004469 -33.755962 6.635452 2.868200 -15.779099 -17.194822 -0.667714 62.702263 2.431633 8.328850 -7.721869 -16.624521 1.461663 
10.950468 51.260921 14.931827 -7.976542 -7.000535 -20.447601 20.194592 -5.685117 -2.825087 -20.187902 0.142677 -0.353310 -5.668285 -5.392969 -3.254766 31.105410 11.219556 -4.760233 2.424333 -4.683778 1.783845 -55.596123 -67.324074 36.233730 -91.978996 7.127739 36.334778 8.524705 12.647240 -41.468147 -2.738486 -1.140572 2.095526 -53.548462 66.251053 -76.836533 86.392296 -1.518863 30.869804 -8.534408 -12.637552 38.919781 10.492696 11.800953 0.369754 30.923296 -5.278291 -4.961967 -33.750195 6.732785 2.908277 -16.004011 -17.058516 -0.316379 61.334114 2.587988 8.233688 -9.125632 -16.409071 1.089068 
10.864160 51.281063 15.035579 -7.806664 -6.873257 -20.180477 20.339878 -5.884665 -2.755654 -20.187775 0.074925 -0.313206 -5.601733 -5.322158 -3.377722 30.901947 11.362562 -4.967894 2.424333 -4.683778 1.783845 -55.220932 -66.389435 35.083649 -92.710426 7.536360 36.743313 8.524705 12.647240 -41.370499 -2.738486 -1.140572 2.095526 -53.565128 65.385986 -78.115707 86.553177 -1.859028 31.466766 -8.534408 -12.637552 39.036964 10.487399 11.844709 0.127060 30.702602 -5.293245 -4.955492 -33.767426 6.742738 2.928299 -16.088394 -17.025742 0.042565 59.838631 2.754164 8.110972 -10.831828 -16.075863 0.635051 
10.777247 51.300011 15.126100 -7.581454 -6.755479 -19.906160 20.454508 -6.054261 -2.684294 -20.119183 -0.051089 -0.272267 -5.622242 -5.139269 -3.501231 30.835518 11.432306 -5.151544 2.424333 -4.683778 1.783845 -54.882633 -65.454453 33.904213 -93.454163 7.922150 37.147556 8.524705 12.647240 -41.067760 -2.738486 -1.140572 2.095526 -53.514435 64.504570 -79.367111 86.804100 -2.330770 32.067425 -8.534408 -12.637552 39.408066 10.389332 11.931128 -0.071232 30.464685 -5.292850 -4.934484 -33.662357 6.788735 2.908621 -16.216446 -16.948893 0.488382 58.273815 2.920178 7.978615 -12.517072 -15.925488 0.183412 
10.690337 51.316853 15.211505 -7.280519 -6.726507 -19.675131 20.513186 -6.053701 -2.597048 -20.031006 -0.206539 -0.241085 -5.838665 -4.865664 -3.661514 31.048098 11.144625 -5.500646 2.424333 -4.683778 1.783845 -54.442326 -64.461632 32.460049 -94.184464 8.267665 37.526760 8.524705 12.647240 -40.403702 -2.738486 -1.140572 2.095526 -53.525776 63.709053 -80.693100 87.161186 -2.901382 32.657166 -8.534408 -12.637552 39.769382 10.183355 12.134967 -0.324616 30.253080 -5.322428 -4.883951 -33.629387 6.804781 2.917568 -16.334099 -16.715197 1.028376 56.649212 3.087429 7.837872 -13.844513 -16.124899 -0.240358 
10.601922 51.327377 15.297816 -7.027202 -6.669343 -19.375624 20.670578 -6.056780 -2.614505 -20.001657 -0.235829 -0.250602 -6.076353 -4.808191 -3.798303 31.264767 10.939874 -5.821215 2.424333 -4.683778 1.783845 -54.135502 -63.282146 30.890173 -94.847588 8.559066 37.875618 8.524705 12.647240 -39.700573 -2.738486 -1.140572 2.095526 -53.695415 63.014709 -82.076393 87.626526 -3.531293 33.229801 -8.534408 -12.637552 39.993996 10.028534 12.303407 -0.632521 30.054689 -5.322170 -4.866443 -33.623009 6.851226 2.917051 -16.365358 -16.590103 1.560274 54.945194 3.273454 7.676663 -14.768684 -16.659857 -0.596511 
